<svg version="1.1" id="Layer_1" xmlns="http://www.w3.org/2000/svg" xmlns:xlink="http://www.w3.org/1999/xlink" x="0px" y="0px"
	 width="100%" viewBox="0 0 356 274" enable-background="new 0 0 356 274" xml:space="preserve">
<path fill="#FEFFFF" opacity="1.000000" stroke="none" 
	d="
M211.000000,275.000000 
	C140.666702,275.000000 70.833397,275.000000 1.000075,275.000000 
	C1.000050,183.666748 1.000050,92.333488 1.000025,1.000173 
	C119.666534,1.000115 238.333069,1.000115 356.999695,1.000058 
	C356.999817,92.333160 356.999817,183.666321 356.999908,274.999756 
	C308.500000,275.000000 260.000000,275.000000 211.000000,275.000000 
M158.956970,207.084595 
	C158.956970,203.513290 158.956970,199.941971 158.956970,196.104767 
	C155.793320,196.104767 153.479431,196.104782 151.165543,196.104782 
	C148.928986,196.104782 146.692429,196.104767 144.623322,196.104767 
	C144.623322,200.539017 144.623322,204.091476 144.623322,207.933640 
	C149.710968,207.933640 154.358475,207.933640 158.925735,208.876434 
	C158.925735,228.099426 158.925735,247.322403 158.925735,266.609192 
	C162.974854,266.609192 166.501465,266.609192 169.989777,266.609192 
	C169.989777,246.791672 169.989777,227.362656 170.920425,207.928528 
	C175.477768,207.928528 180.035110,207.928528 184.612061,207.928528 
	C184.612061,203.621750 184.612061,200.079437 184.612061,196.424347 
	C179.744568,196.424347 175.216949,196.424347 170.063370,196.424347 
	C170.063370,200.489700 170.063370,204.250504 169.143967,207.879715 
	C165.740051,207.921402 162.336136,207.963089 158.956970,207.084595 
M124.546150,237.912567 
	C124.422867,237.470001 124.299583,237.027451 124.068001,235.888901 
	C117.439674,221.550156 110.811356,207.211411 103.748413,191.932465 
	C96.338669,207.926254 89.491112,222.706543 82.386185,238.042374 
	C87.275612,238.042374 91.087257,238.042374 95.099640,238.778290 
	C93.777206,242.248245 92.454773,245.718201 91.064095,249.367218 
	C99.771461,249.367218 107.982094,249.367218 116.153870,249.367218 
	C115.039772,245.392319 114.001770,241.688904 113.875572,238.128311 
	C117.249306,238.068115 120.623047,238.007919 124.546150,237.912567 
M300.685577,226.887650 
	C307.897522,222.894623 315.109467,218.901581 323.194519,214.425156 
	C323.194519,232.475571 323.194519,249.643539 323.194519,266.615723 
	C327.419891,266.615723 330.986420,266.615723 334.448303,266.615723 
	C334.448303,243.204468 334.448303,220.195389 334.448303,196.412247 
	C324.206024,202.272537 314.601562,207.815384 304.935760,213.249191 
	C303.417511,214.102707 301.621185,214.461639 300.191467,214.140045 
	C300.211823,211.316284 300.376007,208.482971 300.189850,205.672897 
	C300.101105,204.333618 299.740234,202.441422 298.819855,201.833633 
	C295.876862,199.890213 292.614471,198.430496 289.238892,196.660004 
	C288.113831,209.649445 289.575653,212.010086 300.150940,215.879074 
	C300.121948,219.603973 300.092957,223.328888 299.418274,226.765381 
	C296.126862,224.925476 292.835449,223.085571 289.275208,221.095398 
	C289.275208,236.690735 289.275208,251.717178 289.275208,266.676971 
	C293.068329,266.676971 296.488068,266.676971 299.976807,266.676971 
	C299.976807,253.222458 299.976807,240.090164 300.685577,226.887650 
M209.942047,162.447861 
	C209.942047,165.375351 209.942047,168.302841 209.942047,171.196289 
	C219.029175,171.196289 227.406845,171.196289 235.767715,171.196289 
	C235.767715,116.895874 235.767715,63.006290 235.767715,9.121085 
	C235.174667,9.075636 234.780640,8.915926 234.553528,9.046505 
	C218.112793,18.499872 201.674530,27.957767 185.287094,37.502914 
	C184.424271,38.005482 183.473541,39.254028 183.456818,40.171551 
	C183.312729,48.084248 183.373962,56.000687 183.373962,64.960068 
	C192.685898,59.565762 201.040710,54.725906 209.942017,49.569481 
	C209.942017,87.513969 209.942017,124.489021 209.942047,162.447861 
M130.896378,108.500000 
	C130.896378,89.130951 130.896378,69.761902 130.896378,49.619858 
	C139.957016,54.934391 148.156067,59.743549 157.002197,64.932259 
	C157.002197,56.770470 156.781113,49.769791 157.097809,42.793526 
	C157.250320,39.433811 155.970154,37.758728 153.219376,36.189041 
	C138.621704,27.859123 124.125977,19.350597 109.586304,10.918830 
	C108.225548,10.129708 106.804535,9.444491 104.998039,8.493337 
	C104.998039,63.210495 104.998039,117.127274 104.998039,171.250107 
	C113.677818,171.250107 122.079758,171.250107 130.896301,171.250107 
	C130.896301,150.429321 130.896301,129.964661 130.896378,108.500000 
M157.000137,144.500000 
	C157.000137,153.414474 157.000137,162.328964 157.000137,171.233032 
	C166.118423,171.233032 174.517532,171.233032 182.940430,171.233032 
	C182.940430,135.674942 182.940430,100.489555 182.940430,65.316574 
	C174.131195,65.316574 165.725922,65.316574 157.000137,65.316574 
	C157.000137,91.587776 157.000137,117.543892 157.000137,144.500000 
M63.174946,238.500015 
	C63.174946,224.768692 63.174946,211.037369 63.174946,196.396545 
	C56.800194,200.031021 51.219009,203.192276 45.658260,206.389069 
	C39.644794,209.846130 38.621464,213.032394 41.314102,220.329391 
	C44.605175,218.479324 47.862972,216.647964 51.991165,214.327316 
	C51.991165,232.431732 51.991165,249.577805 51.991165,266.681427 
	C56.028759,266.681427 59.433933,266.681427 63.175209,266.681427 
	C63.175209,257.410034 63.175209,248.455032 63.174946,238.500015 
M5.999020,232.500000 
	C5.999020,243.910202 5.999020,255.320404 5.999020,266.694702 
	C10.091116,266.694702 13.506931,266.694702 17.415833,266.694702 
	C17.415833,249.362747 17.415833,232.329437 17.415833,214.501144 
	C21.483080,216.714630 24.847998,218.545898 29.554790,221.107437 
	C28.799128,216.117355 29.550812,210.860764 27.466692,209.231369 
	C21.168652,204.307480 13.769848,200.791550 5.999020,196.259644 
	C5.999020,208.679230 5.999020,220.089615 5.999020,232.500000 
M28.902624,225.636551 
	C28.902624,239.362656 28.902624,253.088745 28.902624,266.647278 
	C33.128677,266.647278 36.545925,266.647278 39.992729,266.647278 
	C39.992729,251.375824 39.992729,236.455978 39.992729,221.004959 
	C37.147346,221.004959 34.517384,221.176758 31.919788,220.960220 
	C28.870155,220.706009 28.731230,222.483047 28.902624,225.636551 
M195.842407,196.125687 
	C192.031876,196.896545 191.126617,200.986877 193.299515,207.610382 
	C206.369492,207.610382 219.439468,207.610382 232.761383,207.610382 
	C232.761383,203.784912 232.761383,200.223801 232.761383,196.125198 
	C220.605225,196.125198 208.687607,196.125198 195.842407,196.125687 
M222.470551,234.862045 
	C225.897202,234.862045 229.323868,234.862045 232.713226,234.862045 
	C232.713226,230.536102 232.713226,226.946106 232.713226,223.333725 
	C219.209122,223.333725 206.001968,223.333725 192.756042,223.333725 
	C192.756042,227.259628 192.756042,230.836960 192.756042,234.861938 
	C202.564468,234.861938 212.021057,234.861938 222.470551,234.862045 
M224.424835,255.361526 
	C216.927063,255.361496 209.429306,255.361420 201.931534,255.361420 
	C191.155701,255.361420 191.154816,255.361557 192.686691,266.179871 
	C192.707367,266.325897 192.871857,266.451630 193.061813,266.715363 
	C206.201096,266.715363 219.431122,266.715363 232.664185,266.715363 
	C232.664185,262.852203 232.664185,259.298126 232.664185,255.361938 
	C230.008713,255.361938 227.701859,255.361938 224.424835,255.361526 
M275.392883,267.017059 
	C277.166748,267.017059 278.940613,267.017059 280.761566,267.017059 
	C280.761566,262.882629 280.761566,259.335358 280.761566,255.623184 
	C267.354492,255.623184 254.293259,255.623184 240.917328,255.623184 
	C240.917328,259.452576 240.917328,263.023621 240.917328,267.017059 
	C252.202438,267.017059 263.310547,267.017059 275.392883,267.017059 
M262.499420,196.125061 
	C255.386841,196.125061 248.274261,196.125061 241.134583,196.125061 
	C241.134583,200.353226 241.134583,203.915588 241.134583,207.545120 
	C254.583328,207.545120 267.655151,207.545120 280.754974,207.545120 
	C280.754974,203.642944 280.754974,200.075211 280.754974,196.125153 
	C274.772980,196.125153 269.135803,196.125153 262.499420,196.125061 
M273.418518,234.862030 
	C275.855713,234.862030 278.292908,234.862030 280.831055,234.862030 
	C280.831055,230.614929 280.831055,227.030807 280.831055,223.383896 
	C267.371460,223.383896 254.180313,223.383896 241.164368,223.383896 
	C241.164368,227.355835 241.164368,230.931641 241.164368,234.861938 
	C251.848816,234.861938 262.144897,234.861938 273.418518,234.862030 
M73.168594,257.594116 
	C71.821922,260.571594 70.475250,263.549042 68.907768,267.014709 
	C73.151886,267.014709 76.778236,267.098694 80.396118,266.960754 
	C81.410873,266.922089 82.962921,266.506073 83.311859,265.794220 
	C85.803261,260.711700 88.047043,255.507767 90.469734,250.119690 
	C77.291138,248.400330 77.291138,248.400330 73.168594,257.594116 
M134.864304,258.620697 
	C130.097107,248.390518 129.431198,248.055511 117.233154,250.254669 
	C119.551003,255.484802 121.726562,260.607758 124.142952,265.614502 
	C124.503265,266.361084 125.980606,266.908783 126.967232,266.951874 
	C130.572586,267.109253 134.188965,267.014099 138.679260,267.014099 
	C137.298843,264.025330 136.217560,261.684235 134.864304,258.620697 
z"/>
<path fill="#0FCEDA" opacity="1.000000" stroke="none" 
	d="
M209.942032,161.955963 
	C209.942017,124.489021 209.942017,87.513969 209.942017,49.569481 
	C201.040710,54.725906 192.685898,59.565762 183.373962,64.960068 
	C183.373962,56.000687 183.312729,48.084248 183.456818,40.171551 
	C183.473541,39.254028 184.424271,38.005482 185.287094,37.502914 
	C201.674530,27.957767 218.112793,18.499872 234.553528,9.046505 
	C234.780640,8.915926 235.174667,9.075636 235.767715,9.121085 
	C235.767715,63.006290 235.767715,116.895874 235.767715,171.196289 
	C227.406845,171.196289 219.029175,171.196289 209.942047,171.196289 
	C209.942047,168.302841 209.942047,165.375351 209.942032,161.955963 
z"/>
<path fill="#0FCEDA" opacity="1.000000" stroke="none" 
	d="
M130.896332,109.000000 
	C130.896301,129.964661 130.896301,150.429321 130.896301,171.250107 
	C122.079758,171.250107 113.677818,171.250107 104.998039,171.250107 
	C104.998039,117.127274 104.998039,63.210495 104.998039,8.493337 
	C106.804535,9.444491 108.225548,10.129708 109.586304,10.918830 
	C124.125977,19.350597 138.621704,27.859123 153.219376,36.189041 
	C155.970154,37.758728 157.250320,39.433811 157.097809,42.793526 
	C156.781113,49.769791 157.002197,56.770470 157.002197,64.932259 
	C148.156067,59.743549 139.957016,54.934391 130.896378,49.619858 
	C130.896378,69.761902 130.896378,89.130951 130.896332,109.000000 
z"/>
<path fill="#0ECEDA" opacity="1.000000" stroke="none" 
	d="
M157.000137,144.000000 
	C157.000137,117.543892 157.000137,91.587776 157.000137,65.316574 
	C165.725922,65.316574 174.131195,65.316574 182.940430,65.316574 
	C182.940430,100.489555 182.940430,135.674942 182.940430,171.233032 
	C174.517532,171.233032 166.118423,171.233032 157.000137,171.233032 
	C157.000137,162.328964 157.000137,153.414474 157.000137,144.000000 
z"/>
<path fill="#16D0DB" opacity="1.000000" stroke="none" 
	d="
M299.953430,215.049255 
	C301.621185,214.461639 303.417511,214.102707 304.935760,213.249191 
	C314.601562,207.815384 324.206024,202.272537 334.448303,196.412247 
	C334.448303,220.195389 334.448303,243.204468 334.448303,266.615723 
	C330.986420,266.615723 327.419891,266.615723 323.194519,266.615723 
	C323.194519,249.643539 323.194519,232.475571 323.194519,214.425156 
	C315.109467,218.901581 307.897522,222.894623 300.358032,226.942139 
	C300.030487,226.996643 300.063965,227.053787 300.063965,227.053787 
	C300.092957,223.328888 300.121948,219.603973 300.078979,215.443680 
	C300.006989,215.008286 299.953430,215.049240 299.953430,215.049255 
z"/>
<path fill="#0FCEDA" opacity="1.000000" stroke="none" 
	d="
M63.175079,239.000031 
	C63.175209,248.455032 63.175209,257.410034 63.175209,266.681427 
	C59.433933,266.681427 56.028759,266.681427 51.991165,266.681427 
	C51.991165,249.577805 51.991165,232.431732 51.991165,214.327316 
	C47.862972,216.647964 44.605175,218.479324 41.314102,220.329391 
	C38.621464,213.032394 39.644794,209.846130 45.658260,206.389069 
	C51.219009,203.192276 56.800194,200.031021 63.174946,196.396545 
	C63.174946,211.037369 63.174946,224.768692 63.175079,239.000031 
z"/>
<path fill="#0FCEDA" opacity="1.000000" stroke="none" 
	d="
M5.999020,232.000000 
	C5.999020,220.089615 5.999020,208.679230 5.999020,196.259644 
	C13.769848,200.791550 21.168652,204.307480 27.466692,209.231369 
	C29.550812,210.860764 28.799128,216.117355 29.554790,221.107437 
	C24.847998,218.545898 21.483080,216.714630 17.415833,214.501144 
	C17.415833,232.329437 17.415833,249.362747 17.415833,266.694702 
	C13.506931,266.694702 10.091116,266.694702 5.999020,266.694702 
	C5.999020,255.320404 5.999020,243.910202 5.999020,232.000000 
z"/>
<path fill="#11CFDB" opacity="1.000000" stroke="none" 
	d="
M94.898903,238.042374 
	C91.087257,238.042374 87.275612,238.042374 82.386185,238.042374 
	C89.491112,222.706543 96.338669,207.926254 103.748413,191.932465 
	C110.811356,207.211411 117.439674,221.550156 124.065575,236.576538 
	C124.041023,237.492020 124.018898,237.719864 123.996780,237.947723 
	C120.623047,238.007919 117.249306,238.068115 113.142776,238.046051 
	C112.042000,237.994949 111.674034,238.026093 111.242653,237.678070 
	C108.828232,232.037598 106.477219,226.776276 103.809814,220.806885 
	C100.823669,227.268219 98.336128,232.650711 95.611015,238.020172 
	C95.373444,238.007172 94.898903,238.042374 94.898903,238.042374 
z"/>
<path fill="#0DCEDA" opacity="1.000000" stroke="none" 
	d="
M169.989777,207.933624 
	C169.989777,227.362656 169.989777,246.791672 169.989777,266.609192 
	C166.501465,266.609192 162.974854,266.609192 158.925735,266.609192 
	C158.925735,247.322403 158.925735,228.099426 158.942261,208.417480 
	C158.958801,207.958511 158.932220,208.004761 158.932220,208.004761 
	C162.336136,207.963089 165.740051,207.921402 169.591797,207.919922 
	C170.039627,207.960114 169.989777,207.933624 169.989777,207.933624 
z"/>
<path fill="#0DCEDA" opacity="1.000000" stroke="none" 
	d="
M28.902822,225.154144 
	C28.731230,222.483047 28.870155,220.706009 31.919788,220.960220 
	C34.517384,221.176758 37.147346,221.004959 39.992729,221.004959 
	C39.992729,236.455978 39.992729,251.375824 39.992729,266.647278 
	C36.545925,266.647278 33.128677,266.647278 28.902624,266.647278 
	C28.902624,253.088745 28.902624,239.362656 28.902822,225.154144 
z"/>
<path fill="#17D0DB" opacity="1.000000" stroke="none" 
	d="
M196.306213,196.125443 
	C208.687607,196.125198 220.605225,196.125198 232.761383,196.125198 
	C232.761383,200.223801 232.761383,203.784912 232.761383,207.610382 
	C219.439468,207.610382 206.369492,207.610382 193.298676,207.616852 
	C191.126617,200.986877 192.031876,196.896545 196.306213,196.125443 
z"/>
<path fill="#12CFDB" opacity="1.000000" stroke="none" 
	d="
M221.974091,234.862000 
	C212.021057,234.861938 202.564468,234.861938 192.756042,234.861938 
	C192.756042,230.836960 192.756042,227.259628 192.756042,223.333725 
	C206.001968,223.333725 219.209122,223.333725 232.713226,223.333725 
	C232.713226,226.946106 232.713226,230.536102 232.713226,234.862045 
	C229.323868,234.862045 225.897202,234.862045 221.974091,234.862000 
z"/>
<path fill="#17D0DB" opacity="1.000000" stroke="none" 
	d="
M224.909912,255.361725 
	C227.701859,255.361938 230.008713,255.361938 232.664185,255.361938 
	C232.664185,259.298126 232.664185,262.852203 232.664185,266.715363 
	C219.431122,266.715363 206.201096,266.715363 193.061813,266.715363 
	C192.871857,266.451630 192.707367,266.325897 192.686691,266.179871 
	C191.154816,255.361557 191.155701,255.361420 201.931534,255.361420 
	C209.429306,255.361420 216.927063,255.361496 224.909912,255.361725 
z"/>
<path fill="#17D0DB" opacity="1.000000" stroke="none" 
	d="
M274.905762,267.017059 
	C263.310547,267.017059 252.202438,267.017059 240.917328,267.017059 
	C240.917328,263.023621 240.917328,259.452576 240.917328,255.623184 
	C254.293259,255.623184 267.354492,255.623184 280.761566,255.623184 
	C280.761566,259.335358 280.761566,262.882629 280.761566,267.017059 
	C278.940613,267.017059 277.166748,267.017059 274.905762,267.017059 
z"/>
<path fill="#17D0DB" opacity="1.000000" stroke="none" 
	d="
M262.999023,196.125107 
	C269.135803,196.125153 274.772980,196.125153 280.754974,196.125153 
	C280.754974,200.075211 280.754974,203.642944 280.754974,207.545120 
	C267.655151,207.545120 254.583328,207.545120 241.134583,207.545120 
	C241.134583,203.915588 241.134583,200.353226 241.134583,196.125061 
	C248.274261,196.125061 255.386841,196.125061 262.999023,196.125107 
z"/>
<path fill="#12CFDB" opacity="1.000000" stroke="none" 
	d="
M272.929749,234.861984 
	C262.144897,234.861938 251.848816,234.861938 241.164368,234.861938 
	C241.164368,230.931641 241.164368,227.355835 241.164368,223.383896 
	C254.180313,223.383896 267.371460,223.383896 280.831055,223.383896 
	C280.831055,227.030807 280.831055,230.614929 280.831055,234.862030 
	C278.292908,234.862030 275.855713,234.862030 272.929749,234.861984 
z"/>
<path fill="#0ECEDA" opacity="1.000000" stroke="none" 
	d="
M300.003662,226.977249 
	C299.976807,240.090164 299.976807,253.222458 299.976807,266.676971 
	C296.488068,266.676971 293.068329,266.676971 289.275208,266.676971 
	C289.275208,251.717178 289.275208,236.690735 289.275208,221.095398 
	C292.835449,223.085571 296.126862,224.925476 299.741119,226.909576 
	C300.063965,227.053787 300.030487,226.996643 300.003662,226.977249 
z"/>
<path fill="#1FD2DD" opacity="1.000000" stroke="none" 
	d="
M111.306061,238.057220 
	C111.674034,238.026093 112.042000,237.994949 112.686874,237.974655 
	C114.001770,241.688904 115.039772,245.392319 116.153870,249.367218 
	C107.982094,249.367218 99.771461,249.367218 91.064095,249.367218 
	C92.454773,245.718201 93.777206,242.248245 94.999268,238.410339 
	C94.898903,238.042374 95.373444,238.007172 96.091080,238.027405 
	C101.641167,238.050842 106.473610,238.054031 111.306061,238.057220 
z"/>
<path fill="#17D0DB" opacity="1.000000" stroke="none" 
	d="
M73.348694,257.257233 
	C77.291138,248.400330 77.291138,248.400330 90.469734,250.119690 
	C88.047043,255.507767 85.803261,260.711700 83.311859,265.794220 
	C82.962921,266.506073 81.410873,266.922089 80.396118,266.960754 
	C76.778236,267.098694 73.151886,267.014709 68.907768,267.014709 
	C70.475250,263.549042 71.821922,260.571594 73.348694,257.257233 
z"/>
<path fill="#17D0DB" opacity="1.000000" stroke="none" 
	d="
M135.000290,258.981934 
	C136.217560,261.684235 137.298843,264.025330 138.679260,267.014099 
	C134.188965,267.014099 130.572586,267.109253 126.967232,266.951874 
	C125.980606,266.908783 124.503265,266.361084 124.142952,265.614502 
	C121.726562,260.607758 119.551003,255.484802 117.233154,250.254669 
	C129.431198,248.055511 130.097107,248.390518 135.000290,258.981934 
z"/>
<path fill="#1FD2DD" opacity="1.000000" stroke="none" 
	d="
M170.051498,207.985718 
	C170.063370,204.250504 170.063370,200.489700 170.063370,196.424347 
	C175.216949,196.424347 179.744568,196.424347 184.612061,196.424347 
	C184.612061,200.079437 184.612061,203.621750 184.612061,207.928528 
	C180.035110,207.928528 175.477768,207.928528 170.455109,207.931076 
	C169.989777,207.933624 170.039627,207.960114 170.051498,207.985718 
z"/>
<path fill="#1FD2DD" opacity="1.000000" stroke="none" 
	d="
M158.982391,207.946075 
	C154.358475,207.933640 149.710968,207.933640 144.623322,207.933640 
	C144.623322,204.091476 144.623322,200.539017 144.623322,196.104767 
	C146.692429,196.104767 148.928986,196.104782 151.165543,196.104782 
	C153.479431,196.104782 155.793320,196.104767 158.956970,196.104767 
	C158.956970,199.941971 158.956970,203.513290 158.944595,207.544678 
	C158.932220,208.004761 158.958801,207.958511 158.982391,207.946075 
z"/>
<path fill="#12CFDB" opacity="1.000000" stroke="none" 
	d="
M300.027466,214.981506 
	C289.575653,212.010086 288.113831,209.649445 289.238892,196.660004 
	C292.614471,198.430496 295.876862,199.890213 298.819855,201.833633 
	C299.740234,202.441422 300.101105,204.333618 300.189850,205.672897 
	C300.376007,208.482971 300.211823,211.316284 300.072449,214.594635 
	C299.953430,215.049240 300.006989,215.008286 300.027466,214.981506 
z"/>
<path fill="#1FD2DD" opacity="1.000000" stroke="none" 
	d="
M124.271469,237.930145 
	C124.018898,237.719864 124.041023,237.492020 124.119720,236.924530 
	C124.299583,237.027451 124.422867,237.470001 124.271469,237.930145 
z"/>
<path fill="#FEFFFF" opacity="1.000000" stroke="none" 
	d="
M111.242653,237.678070 
	C106.473610,238.054031 101.641167,238.050842 96.328651,238.040421 
	C98.336128,232.650711 100.823669,227.268219 103.809814,220.806885 
	C106.477219,226.776276 108.828232,232.037598 111.242653,237.678070 
z"/>
</svg>